<svg width="125" height="18" viewBox="0 0 125 18" fill="none" xmlns="http://www.w3.org/2000/svg">
<g id="Logo" clip-path="url(#clip0_44_26)">
<path id="Vector" d="M78.0656 16.8398C76.9385 15.7459 76.375 14.0552 76.375 12.0994C76.375 10.1436 77.038 8.28729 78.1651 7.16022C78.9606 6.36464 80.0214 5.90055 81.1485 5.9337C82.6733 5.9337 84.0988 6.79558 84.7617 8.18784V1.39226H82.8059V0H86.7507V16.4088H88.607V17.768H84.828V15.2155C83.933 17.0387 82.5076 17.9668 80.9164 17.9668C79.8557 18 78.828 17.5691 78.0656 16.8398ZM84.8612 11.768C84.8612 9.08287 83.5352 7.25967 81.6457 7.25967C79.7562 7.25967 78.5628 9.01657 78.5628 11.9668C78.5628 14.9171 79.8888 16.6077 81.5463 16.6077C83.3695 16.6409 84.8612 14.7182 84.8612 11.768ZM92.2866 12.0663C92.3529 15.0829 93.8115 16.6409 95.9993 16.6409C97.4247 16.6409 98.6181 16.1105 99.3142 14.3536H100.408C99.712 16.7403 97.9882 18 95.5684 18C92.1871 18 90.0987 15.547 90.0987 12.0663C90.0987 8.51934 92.5186 5.90055 95.6347 5.90055C99.0159 5.90055 100.508 8.95027 100.441 12.0331L92.2866 12.0663ZM92.3197 10.9392H98.386C98.2203 8.51934 97.2921 7.02762 95.5021 7.02762C93.8115 7.02762 92.5849 8.35359 92.3197 10.9392ZM102.629 14.9171C102.629 14.1547 102.927 13.4254 103.425 12.8619C104.32 11.9668 105.579 11.6354 107.834 11.2707C109.425 11.0055 109.657 10.9724 109.657 10.5083V9.38121C109.657 7.69061 108.795 7.06077 107.27 7.06077C106.474 7.02762 105.679 7.25967 105.049 7.72376C105.48 7.9558 105.745 8.41989 105.745 8.91713C105.778 9.61326 105.248 10.2099 104.552 10.2431C104.519 10.2431 104.452 10.2431 104.419 10.2431C103.69 10.2762 103.06 9.67956 103.06 8.95027C103.06 8.91713 103.06 8.88398 103.06 8.85083C103.06 7.16022 105.215 5.96685 107.635 5.96685C110.287 5.96685 111.712 7.09392 111.712 9.44751V15.5138C111.712 16.3094 111.977 16.5414 112.474 16.5414C112.905 16.5414 113.237 16.1768 113.502 15.5138L114.264 15.9447C113.701 17.2707 113.038 17.9005 111.878 17.9005C110.817 17.9005 109.922 17.2707 109.922 15.7459H109.856C109.027 17.105 107.568 17.9337 105.977 17.9337C103.823 17.9337 102.629 16.7403 102.629 14.9171ZM109.69 14.0884V11.8011C109.259 11.9005 108.861 12 108.43 12.0663C105.778 12.4641 104.85 13.0276 104.85 14.5856C104.85 15.8785 105.513 16.6077 106.872 16.6077C108.231 16.6077 109.69 15.4475 109.69 14.0884ZM115.093 13.5912H116.287C116.916 15.6464 118.309 16.9392 120.132 16.9392C121.59 16.9392 122.419 16.2099 122.419 15.116C122.419 13.9558 121.59 13.4254 119.27 12.7956C116.419 12 115.325 11.0718 115.325 9.28177C115.325 7.49171 116.916 5.9337 119.237 5.9337C120.563 5.9337 121.657 6.43094 122.253 7.32597L122.552 5.9337H123.712V9.9116H122.585C121.789 8.0221 120.994 6.99447 119.237 6.99447C118.143 6.99447 117.182 7.62431 117.182 8.68508C117.182 9.74586 118.11 10.3757 120.231 10.9724C123.082 11.7348 124.242 12.5635 124.242 14.4862C124.242 16.2431 122.718 18.0331 120.198 18.0331C118.806 18.0994 117.48 17.4696 116.585 16.4088L116.287 18.0331H115.16L115.093 13.5912Z" fill="#E03749"/>
<path id="Vector_2" d="M68.4531 16.4091H70.6741V7.45878H68.4531V6.13281H72.6631V16.4091H74.8509V17.7682H68.4531V16.4091Z" fill="#E03749"/>
<path id="Vector_3" d="M70.0443 2.05519C70.0111 1.25961 70.6078 0.596626 71.4034 0.563477C71.4365 0.563477 71.4697 0.563477 71.5028 0.563477C72.2653 0.563477 72.8951 1.16016 72.9283 1.95574C72.9283 1.98889 72.9283 2.02204 72.9283 2.05519C72.9614 2.81762 72.3647 3.4806 71.6023 3.51375C71.5691 3.51375 71.536 3.51375 71.5028 3.51375C70.7404 3.5469 70.0774 2.98337 70.0443 2.22094C70.0443 2.15464 70.0443 2.08834 70.0443 2.05519Z" fill="#E03749"/>
<path id="Vector_4" d="M0 13.5249H1.59116C2.25414 15.4144 3.71271 16.7404 5.37017 16.7404C6.76243 16.7404 7.35912 16.0443 7.35912 15.0829C7.35912 14.0553 6.56354 13.5581 4.24309 12.9282C1.35912 12.0995 0.198895 11.1382 0.198895 9.24868C0.198895 7.35917 1.85635 5.73486 4.27624 5.73486C5.50276 5.73486 6.56354 6.19895 7.16022 7.09398L7.42541 5.73486H8.95028V9.77906H7.39226C6.59668 8.05531 5.83425 6.99453 4.24309 6.99453C3.34807 6.99453 2.41989 7.52492 2.41989 8.48625C2.41989 9.51387 3.31492 10.0774 5.43646 10.6409C8.18785 11.4034 9.48066 12.2653 9.48066 14.2874C9.48066 16.0774 7.8895 18.0001 5.23757 18.0001C3.9116 18.0332 2.65193 17.4697 1.79006 16.442L1.49171 18.0001H0V13.5249Z" fill="white"/>
<path id="Vector_5" d="M15.1817 2.85059V6.06606H19.0602V7.62407H15.1817V14.6185C15.1817 15.7788 15.5132 16.3423 16.6072 16.3423C17.3364 16.3423 17.9 15.6793 18.4304 14.2871L19.5906 14.7843C18.9276 17.0716 17.5353 17.9998 15.8779 17.9998C13.8226 17.9998 12.7618 16.7732 12.7618 14.8506V7.62407H10.4414V6.06606H12.7618V3.11578L15.1817 2.85059Z" fill="white"/>
<path id="Subtract" fill-rule="evenodd" clip-rule="evenodd" d="M26.4864 5.73486C22.9395 5.73486 20.5527 8.3205 20.5527 11.9006C20.5527 15.5139 22.7737 18.0001 26.4864 18.0001C30.0003 18.0001 32.387 15.3813 32.387 11.8012C32.387 8.22105 30.1328 5.73486 26.4864 5.73486ZM26.3209 7.09394C28.4093 7.09394 29.669 8.58566 29.669 11.8343C29.669 15.116 28.6082 16.6078 26.5529 16.6078C24.4645 16.6078 23.2049 15.0829 23.2049 11.8343C23.2049 8.58566 24.2325 7.09394 26.3209 7.09394Z" fill="white"/>
<path id="Vector_6" d="M34.2109 16.077H36.1004V7.62394H34.2109V5.93333H38.4872V8.68471C39.0839 6.69576 40.6419 5.80073 41.9678 5.80073C43.0286 5.73444 43.9568 6.53002 44.0231 7.59079C44.0231 7.65709 44.0231 7.72339 44.0231 7.78969C44.0562 8.68471 43.3601 9.44714 42.4651 9.48029C41.5701 9.48029 40.8408 8.94991 40.8408 7.95543C40.8408 7.82283 40.8739 7.65709 40.9071 7.52449C39.7469 7.45819 38.9513 8.78416 38.5203 10.3422V16.077H40.7745V17.8007H34.2109V16.077Z" fill="white"/>
<path id="Vector_7" d="M61.0599 5.76807C62.9494 5.76807 64.0765 7.12718 64.0765 9.44762V16.0443H65.966V17.7681H60.0323V16.0443H61.6566V10.3427C61.6566 9.41448 61.4577 8.65204 61.0268 8.22111C60.6953 7.88961 60.1981 7.72387 59.734 7.75702C58.4411 7.75702 56.7505 9.18243 56.7505 11.5692V16.0775H58.3417V17.8012H52.7063V16.0775H54.2975V10.3427C54.2975 9.41448 54.0986 8.65204 53.6677 8.22111C53.3362 7.88961 52.8389 7.72387 52.3748 7.75702C51.0489 7.75702 49.3914 9.18243 49.3914 11.5692V16.0775H51.0157V17.8012H45.082V16.0775H46.9715V7.62442H45.082V5.93381H49.3914V8.91724C50.7505 6.69624 52.176 5.76807 53.734 5.76807C55.3914 5.76807 56.5516 6.66309 56.7174 8.78464C58.1097 6.62995 59.5019 5.76807 61.0599 5.76807Z" fill="white"/>
</g>
<defs>
<clipPath id="clip0_44_26">
<rect width="124.144" height="18" fill="white"/>
</clipPath>
</defs>
</svg>
