<svg width="118" height="19" viewBox="0 0 118 19" fill="none" xmlns="http://www.w3.org/2000/svg">
<path d="M114.105 8.87984C114.105 7.91984 113.577 7.10384 111.609 7.10384C109.281 7.10384 108.513 7.77584 108.393 9.55184H106.473C106.593 7.19984 108.057 5.42384 111.609 5.42384C113.937 5.42384 116.025 6.33584 116.025 9.28784V15.2398C116.025 16.1998 116.193 16.7278 117.417 16.5838V17.9278C116.913 18.0958 116.649 18.1198 116.289 18.1198C115.137 18.1198 114.441 17.8078 114.105 16.4638H114.057C113.289 17.6158 111.921 18.3358 109.905 18.3358C107.433 18.3358 105.873 16.9198 105.873 14.8558C105.873 12.0718 107.937 11.3518 111.105 10.7518C113.169 10.3678 114.105 10.1038 114.105 8.87984ZM110.097 16.6558C112.377 16.6558 114.105 15.6238 114.105 13.2718V11.2318C113.745 11.5918 112.569 11.9278 111.273 12.1918C108.897 12.6958 107.793 13.2958 107.793 14.7598C107.793 15.9598 108.513 16.6558 110.097 16.6558Z" fill="#E03749"/>
<path d="M99.028 16.6558C101.476 16.6558 102.388 15.0718 102.604 14.2318H104.524C103.9 16.5118 102.148 18.3358 99.1 18.3358C95.38 18.3358 93.124 15.7198 93.124 11.8798C93.124 7.79984 95.428 5.42384 99.004 5.42384C102.844 5.42384 104.716 8.03984 104.716 12.3838H95.044C95.044 14.5918 96.364 16.6558 99.028 16.6558ZM99.004 7.10384C96.7 7.10384 95.044 8.73584 95.044 10.7038H102.796C102.796 8.73584 101.308 7.10384 99.004 7.10384Z" fill="#E03749"/>
<path d="M89.2664 0.839844H91.1864V17.9998H89.2664V16.4878H89.2184C88.4984 17.4238 87.3464 18.3358 85.3784 18.3358C82.3064 18.3358 79.8584 15.9118 79.8584 11.8798C79.8584 7.84784 82.3064 5.42384 85.3784 5.42384C87.3464 5.42384 88.4984 6.28784 89.2184 7.34384H89.2664V0.839844ZM85.5704 16.6558C87.8504 16.6558 89.2664 14.7598 89.2664 11.8798C89.2664 8.99984 87.8504 7.10384 85.5704 7.10384C83.0504 7.10384 81.7784 9.47984 81.7784 11.8798C81.7784 14.2798 83.0504 16.6558 85.5704 16.6558Z" fill="#E03749"/>
<path d="M75.7553 5.75984H77.6753V17.9998H75.7553V5.75984Z" fill="#E03749"/>
<path d="M67.9264 16.6558C70.3744 16.6558 71.2864 15.0718 71.5024 14.2318H73.4224C72.7984 16.5118 71.0464 18.3358 67.9984 18.3358C64.2784 18.3358 62.0224 15.7198 62.0224 11.8798C62.0224 7.79984 64.3264 5.42384 67.9024 5.42384C71.7424 5.42384 73.6144 8.03984 73.6144 12.3838H63.9424C63.9424 14.5918 65.2624 16.6558 67.9264 16.6558ZM67.9024 7.10384C65.5984 7.10384 63.9424 8.73584 63.9424 10.7038H71.6944C71.6944 8.73584 70.2064 7.10384 67.9024 7.10384Z" fill="white"/>
<path d="M58.1648 0.839844H60.0848V17.9998H58.1648V16.4878H58.1168C57.3968 17.4238 56.2448 18.3358 54.2768 18.3358C51.2048 18.3358 48.7568 15.9118 48.7568 11.8798C48.7568 7.84784 51.2048 5.42384 54.2768 5.42384C56.2448 5.42384 57.3968 6.28784 58.1168 7.34384H58.1648V0.839844ZM54.4688 16.6558C56.7488 16.6558 58.1648 14.7598 58.1648 11.8798C58.1648 8.99984 56.7488 7.10384 54.4688 7.10384C51.9488 7.10384 50.6768 9.47984 50.6768 11.8798C50.6768 14.2798 51.9488 16.6558 54.4688 16.6558Z" fill="white"/>
<path d="M44.6537 5.75984H46.5737V17.9998H44.6537V5.75984Z" fill="white"/>
<path d="M25.5648 5.75984H27.6768L30.4608 15.9118H30.5088L33.2448 5.75984H35.2848L38.0448 15.9118H38.0928L40.8768 5.75984H42.9888L39.0768 17.9998H37.0368L34.2768 7.89584H34.2288L31.5168 17.9998H29.4768L25.5648 5.75984Z" fill="white"/>
<path d="M22 17.9998V5.99984L0 5.99997V17.9998H22Z" fill="white"/>
</svg>
